<svg width="300" height="300" viewBox="0 0 300 300" fill="none" xmlns="http://www.w3.org/2000/svg">
<path d="M169.734 193.42C163.402 195.305 156.831 196.261 150.225 196.258C143.491 196.258 136.953 195.275 130.725 193.42C96.7079 183.315 71.5697 147.396 71.5697 104.613C71.5697 53.9805 106.776 12.9484 150.225 12.9484C193.673 12.9484 228.899 53.9805 228.899 104.613C228.899 147.396 203.742 183.315 169.734 193.42Z" fill="white"/>
<path d="M169.734 193.42L173.471 224.506H126.988L130.725 193.42C137.053 195.305 143.622 196.261 150.225 196.258C156.959 196.258 163.496 195.275 169.734 193.42Z" fill="#FF4893"/>
<path d="M150.225 202.814C142.989 202.816 135.79 201.769 128.855 199.705C91.2672 188.538 65.0136 149.435 65.0136 104.614C65.0136 50.4543 103.239 6.39319 150.225 6.39319C197.221 6.39319 235.455 50.4543 235.455 104.614C235.455 149.431 209.197 188.534 171.602 199.706C164.663 201.768 157.463 202.815 150.225 202.814ZM150.225 19.5046C110.469 19.5046 78.1259 57.6838 78.1259 104.613C78.1259 143.674 100.524 177.609 132.592 187.136C144.03 190.542 156.41 190.542 167.867 187.136C199.942 177.604 222.343 143.67 222.343 104.613C222.342 57.6838 189.991 19.5046 150.225 19.5046Z" fill="#4F46A3"/>
<path d="M173.471 231.062H126.989C126.062 231.062 125.145 230.866 124.3 230.485C123.455 230.105 122.699 229.55 122.084 228.857C121.469 228.163 121.008 227.347 120.731 226.462C120.455 225.578 120.369 224.644 120.48 223.724L124.217 192.639C124.647 189.054 127.914 186.445 131.49 186.868C135.077 187.286 137.656 190.483 137.25 194.072L137.235 194.205L134.38 217.952H166.08L163.226 194.205L163.214 194.108C163.01 192.381 163.5 190.644 164.577 189.279C165.654 187.914 167.228 187.032 168.955 186.828C172.553 186.396 175.81 188.972 176.235 192.568L176.245 192.653L179.98 223.727C180.091 224.647 180.005 225.58 179.728 226.464C179.451 227.349 178.99 228.165 178.375 228.858C177.76 229.551 177.005 230.106 176.159 230.486C175.314 230.866 174.398 231.062 173.471 231.062Z" fill="#4F46A3"/>
<path d="M140.859 296.736C139.998 296.736 139.145 296.566 138.35 296.237C137.554 295.907 136.832 295.425 136.223 294.816C135.614 294.207 135.131 293.484 134.802 292.689C134.472 291.893 134.303 291.041 134.303 290.18C134.303 281.137 141.991 276.905 147.079 274.104C149.741 272.639 153.052 270.816 153.052 269.537C153.052 268.244 149.733 266.418 147.065 264.949C141.983 262.151 134.302 257.924 134.302 248.895C134.302 239.852 141.99 235.62 147.078 232.819C149.74 231.354 153.051 229.531 153.051 228.252C153.051 227.391 153.221 226.539 153.55 225.743C153.88 224.948 154.363 224.225 154.972 223.616C155.58 223.008 156.303 222.525 157.099 222.195C157.894 221.866 158.747 221.696 159.608 221.696C160.469 221.696 161.321 221.866 162.117 222.195C162.912 222.525 163.635 223.008 164.243 223.616C164.852 224.225 165.335 224.948 165.665 225.743C165.994 226.539 166.164 227.391 166.164 228.252C166.164 237.281 158.484 241.508 153.401 244.306C150.732 245.774 147.413 247.602 147.413 248.895C147.413 250.173 150.726 251.997 153.387 253.462C158.475 256.262 166.164 260.495 166.164 269.537C166.164 278.566 158.484 282.793 153.401 285.592C150.732 287.059 147.413 288.887 147.413 290.18C147.414 291.041 147.244 291.893 146.915 292.689C146.586 293.484 146.103 294.207 145.494 294.816C144.886 295.425 144.163 295.908 143.368 296.237C142.572 296.567 141.72 296.736 140.859 296.736ZM150.225 174.351C116.708 174.351 89.4399 143.066 89.4399 104.613C89.4399 102.874 90.1307 101.206 91.3602 99.9769C92.5897 98.7474 94.2573 98.0566 95.9961 98.0566C97.7349 98.0566 99.4024 98.7474 100.632 99.9769C101.861 101.206 102.552 102.874 102.552 104.613C102.552 135.837 123.938 161.239 150.225 161.239C151.964 161.239 153.631 161.93 154.861 163.159C156.09 164.389 156.781 166.057 156.781 167.795C156.781 169.534 156.09 171.202 154.861 172.431C153.631 173.661 151.964 174.351 150.225 174.351ZM100.172 86.8381C99.1212 86.8381 98.0856 86.5853 97.1526 86.1012C96.2197 85.6171 95.4168 84.9157 94.8117 84.0563C94.2066 83.1968 93.817 82.2045 93.6758 81.1629C93.5346 80.1214 93.6458 79.0612 94.0002 78.0716C96.6901 70.5554 100.482 63.6799 105.272 57.6361C105.807 56.9613 106.469 56.3984 107.221 55.9796C107.974 55.5608 108.801 55.2942 109.656 55.1952C110.512 55.0961 111.378 55.1665 112.206 55.4022C113.034 55.638 113.808 56.0346 114.483 56.5693C115.157 57.104 115.72 57.7664 116.139 58.5187C116.558 59.2709 116.824 60.0983 116.923 60.9536C117.023 61.8089 116.952 62.6753 116.716 63.5033C116.481 64.3314 116.084 65.1049 115.549 65.7798C111.649 70.7006 108.553 76.323 106.346 82.4895C105.891 83.7621 105.053 84.8629 103.948 85.6413C102.843 86.4197 101.524 86.8377 100.172 86.8381Z" fill="#4F46A3"/>
</svg>
