<svg width="320" height="430" viewBox="0 0 320 430" fill="none" xmlns="http://www.w3.org/2000/svg">
<rect x="40.3745" y="49.9594" width="236.153" height="339.963" fill="#5E47B9"/>
<rect x="51.1089" y="60.5832" width="214.685" height="318.715" fill="white"/>
<g clip-path="url(#clip0_11_16)">
<path d="M33.5251 61.103C34.4563 60.1814 34.1413 58.3779 32.8225 57.0727C31.5046 55.7684 29.6824 55.4566 28.7512 56.3782C27.8216 57.2983 28.135 59.1033 29.4529 60.4077C30.7717 61.7129 32.5955 62.0231 33.5251 61.103Z" fill="#FD9163"/>
<path d="M48.9695 45.8174C49.8991 44.8974 49.5857 43.0923 48.267 41.7871C46.9491 40.4828 45.1252 40.1726 44.1957 41.0926C43.2644 42.0143 43.5795 43.8177 44.8974 45.122C46.2161 46.4272 48.0383 46.739 48.9695 45.8174Z" fill="#FD9163"/>
<path d="M44.0534 29.5613C44.0534 29.5613 33.3837 25.6711 31.9794 27.6162C30.5751 29.5613 31.698 37.8995 31.698 37.8995L28.6098 40.956L25.5216 44.0124C25.5216 44.0124 17.0967 42.9011 15.1314 44.2909C13.1661 45.6807 17.0967 56.2408 17.0967 56.2408C17.0967 56.2408 14.2899 74.026 30.2954 79.8621C41.8528 84.0771 52.7587 73.7474 57.2503 69.302C61.7437 64.8548 72.1791 54.0627 67.9218 42.6226C62.0251 26.7815 44.0534 29.5613 44.0534 29.5613ZM36.2267 30.3592L40.6493 32.2351L36.8585 34.7363L36.2267 30.3592ZM42.511 39.4252C44.7584 37.201 48.4045 37.201 50.6527 39.4261C52.9019 41.6521 52.9019 45.2607 50.6545 47.4849C48.4053 49.7109 44.7593 49.7109 42.5101 47.4849C40.2619 45.2597 40.2619 41.6512 42.511 39.4252ZM17.9046 48.4928L22.3272 49.1181L19.8 52.8699L17.9046 48.4928ZM27.0665 54.7108C29.3157 52.4849 32.9617 52.4849 35.21 54.71C37.4591 56.936 37.4591 60.5446 35.21 62.7706C32.9609 64.9966 29.3148 64.9966 27.0657 62.7706C24.8173 60.5453 24.8174 56.9368 27.0665 54.7108ZM34.5724 78.1839L32.9041 76.852L40.9266 67.0133L42.5957 68.3461L34.5724 78.1839ZM40.0233 65.3442L30.0946 73.736L28.7011 72.1223L38.6298 63.7305L40.0233 65.3442ZM57.5343 58.1711C56.9296 59.1473 56.3118 59.9363 55.6792 60.5624C54.841 61.3938 53.9657 61.9409 53.0813 62.2299C52.1969 62.5189 51.3159 62.5377 50.5237 62.3756C50.392 62.348 50.2786 62.2942 50.1518 62.2583C50.4044 63.1467 50.4504 64.1498 50.1058 65.1748C49.8139 66.0501 49.2601 66.9155 48.4218 67.7452C47.7876 68.3713 46.992 68.9827 46.0056 69.5828C45.5293 69.872 44.905 69.7245 44.6129 69.253C44.32 68.7808 44.4689 68.1629 44.946 67.8731C45.8238 67.3414 46.4926 66.8194 46.9895 66.3276C47.6493 65.6747 48.0046 65.0786 48.1815 64.5469C48.3576 64.0144 48.3666 63.5317 48.2687 63.0455C48.0787 62.0807 47.3687 61.1012 46.616 60.3643C46.1908 59.9418 45.776 59.6128 45.4602 59.38L42.7379 59.5143C42.1801 59.5421 41.6628 59.227 41.4365 58.7214C41.2102 58.2157 41.3205 57.6246 41.7153 57.2338L45.0578 53.9258C45.4444 53.5431 46.0252 53.4292 46.5303 53.6359C47.0337 53.8427 47.3636 54.3304 47.3636 54.8709L47.3636 57.8087C47.5883 58.0944 47.868 58.4283 48.2184 58.7751C48.7761 59.3304 49.4738 59.8726 50.1977 60.1805C50.9307 60.4874 51.644 60.5827 52.4468 60.3253C52.984 60.1503 53.5862 59.7986 54.2468 59.1448C54.7438 58.653 55.2702 57.9918 55.8098 57.1222C56.1019 56.6509 56.7255 56.5026 57.2026 56.7924C57.6783 57.0825 57.8272 57.6989 57.5343 58.1711ZM51.6227 50.8712L60.1001 41.0462L61.7305 42.4255L53.2531 52.2504L51.6227 50.8712ZM66.2264 46.8555L56.2863 54.7963L54.9397 53.1443L64.8806 45.2044L66.2264 46.8555Z" fill="#FD9163"/>
</g>
<g clip-path="url(#clip1_11_16)">
<path d="M286.475 381.536C285.544 382.458 285.859 384.261 287.177 385.566C288.495 386.871 290.318 387.182 291.249 386.261C292.178 385.341 291.865 383.536 290.547 382.231C289.228 380.926 287.405 380.616 286.475 381.536Z" fill="#33C5B4"/>
<path d="M271.03 396.821C270.101 397.742 270.414 399.547 271.733 400.852C273.051 402.156 274.875 402.466 275.804 401.546C276.736 400.625 276.421 398.821 275.103 397.517C273.784 396.212 271.962 395.9 271.03 396.821Z" fill="#33C5B4"/>
<path d="M275.947 413.078C275.947 413.078 286.616 416.968 288.021 415.023C289.425 413.078 288.302 404.739 288.302 404.739L291.39 401.683L294.478 398.627C294.478 398.627 302.903 399.738 304.869 398.348C306.834 396.958 302.903 386.398 302.903 386.398C302.903 386.398 305.71 368.613 289.705 362.777C278.147 358.562 267.241 368.892 262.75 373.337C258.256 377.784 247.821 388.576 252.078 400.016C257.975 415.857 275.947 413.078 275.947 413.078ZM283.773 412.28L279.351 410.404L283.141 407.903L283.773 412.28ZM277.489 403.214C275.242 405.438 271.596 405.438 269.347 403.213C267.098 400.987 267.098 397.378 269.346 395.154C271.595 392.928 275.241 392.928 277.49 395.154C279.738 397.379 279.738 400.988 277.489 403.214ZM302.095 394.146L297.673 393.521L300.2 389.769L302.095 394.146ZM292.933 387.928C290.684 390.154 287.038 390.154 284.79 387.929C282.541 385.703 282.541 382.094 284.79 379.868C287.039 377.642 290.685 377.642 292.934 379.868C295.183 382.094 295.183 385.702 292.933 387.928ZM285.428 364.455L287.096 365.787L279.073 375.626L277.404 374.293L285.428 364.455ZM279.977 377.295L289.905 368.903L291.299 370.517L281.37 378.908L279.977 377.295ZM262.466 384.468C263.07 383.492 263.688 382.703 264.321 382.076C265.159 381.245 266.034 380.698 266.919 380.409C267.803 380.12 268.684 380.101 269.476 380.263C269.608 380.291 269.721 380.345 269.848 380.381C269.596 379.492 269.55 378.489 269.894 377.464C270.186 376.589 270.74 375.723 271.578 374.894C272.212 374.268 273.008 373.656 273.994 373.056C274.471 372.767 275.095 372.914 275.387 373.386C275.68 373.858 275.531 374.476 275.054 374.766C274.176 375.297 273.507 375.819 273.01 376.311C272.351 376.964 271.995 377.56 271.819 378.092C271.642 378.624 271.633 379.107 271.731 379.593C271.921 380.558 272.631 381.538 273.384 382.275C273.809 382.697 274.224 383.026 274.54 383.259L277.262 383.125C277.82 383.097 278.337 383.412 278.564 383.918C278.79 384.423 278.68 385.014 278.285 385.405L274.942 388.713C274.556 389.096 273.975 389.21 273.47 389.003C272.966 388.796 272.636 388.309 272.636 387.768L272.636 384.83C272.412 384.544 272.132 384.211 271.782 383.864C271.224 383.309 270.526 382.766 269.802 382.458C269.069 382.152 268.356 382.056 267.553 382.314C267.016 382.489 266.414 382.84 265.753 383.494C265.256 383.986 264.73 384.647 264.19 385.517C263.898 385.988 263.275 386.136 262.797 385.846C262.322 385.556 262.173 384.94 262.466 384.468ZM268.377 391.768L259.9 401.593L258.269 400.213L266.747 390.389L268.377 391.768ZM253.774 395.783L263.714 387.843L265.06 389.495L255.119 397.435L253.774 395.783Z" fill="#33C5B4"/>
</g>
<g clip-path="url(#clip2_11_16)">
<path d="M271.032 43.1803C271.964 44.102 273.786 43.7902 275.104 42.485C276.422 41.1807 276.737 39.3772 275.806 38.4556C274.877 37.5355 273.053 37.8457 271.735 39.15C270.416 40.4552 270.103 42.2603 271.032 43.1803Z" fill="#FEDE6B"/>
<path d="M286.477 58.466C287.406 59.386 289.23 59.0758 290.549 57.7706C291.867 56.4663 292.18 54.6612 291.251 53.7412C290.319 52.8195 288.497 53.1314 287.179 54.4357C285.861 55.7409 285.545 57.5443 286.477 58.466Z" fill="#FEDE6B"/>
<path d="M302.902 53.6004C302.902 53.6004 306.832 43.0403 304.867 41.6505C302.902 40.2606 294.477 41.372 294.477 41.372L291.389 38.3155L288.3 35.2591C288.3 35.2591 289.423 26.9209 288.019 24.9758C286.615 23.0307 275.945 26.9209 275.945 26.9209C275.945 26.9209 257.975 24.1429 252.078 39.9839C247.819 51.4224 258.256 62.2161 262.748 66.6616C267.241 71.1087 278.146 81.4368 289.705 77.2233C305.71 71.3872 302.902 53.6004 302.902 53.6004ZM302.096 45.8541L300.2 50.2312L297.673 46.4794L302.096 45.8541ZM292.935 52.0738C295.183 54.2981 295.183 57.9066 292.934 60.1318C290.685 62.3578 287.039 62.3578 284.792 60.1335C282.543 57.9075 282.543 54.2989 284.792 52.0729C287.04 49.8478 290.686 49.8479 292.935 52.0738ZM283.773 27.7205L283.142 32.0976L279.351 29.5964L283.773 27.7205ZM277.491 36.7882C279.74 39.0142 279.74 42.6228 277.492 44.8479C275.243 47.0739 271.597 47.0739 269.347 44.8479C267.098 42.6219 267.098 39.0133 269.347 36.7873C271.596 34.5621 275.242 34.5622 277.491 36.7882ZM253.774 44.2168L255.12 42.5657L265.061 50.5057L263.714 52.1576L253.774 44.2168ZM266.747 49.6117L258.268 39.7851L259.898 38.4059L268.377 48.2325L266.747 49.6117ZM273.995 66.9426C273.008 66.3441 272.211 65.7327 271.578 65.1065C270.739 64.277 270.186 63.4107 269.894 62.5354C269.602 61.6601 269.583 60.7882 269.746 60.0041C269.774 59.8738 269.829 59.7615 269.865 59.636C268.967 59.886 267.954 59.9316 266.918 59.5905C266.034 59.3016 265.159 58.7535 264.321 57.9238C263.688 57.2961 263.071 56.5087 262.464 55.5325C262.172 55.0611 262.321 54.4432 262.798 54.1541C263.275 53.8642 263.899 54.0115 264.192 54.4838C264.729 55.3525 265.256 56.0144 265.753 56.5063C266.413 57.1592 267.015 57.5109 267.553 57.686C268.091 57.8603 268.578 57.8692 269.07 57.7722C270.044 57.5843 271.034 56.8816 271.779 56.1366C272.206 55.7157 272.538 55.3053 272.773 54.9926L272.637 52.2984C272.609 51.7463 272.928 51.2343 273.439 51.0103C273.95 50.7864 274.547 50.8955 274.942 51.2863L278.284 54.5944C278.671 54.977 278.786 55.5519 278.577 56.0518C278.368 56.55 277.875 56.8765 277.329 56.8765L274.361 56.8765C274.072 57.0988 273.735 57.3757 273.384 57.7225C272.823 58.2745 272.275 58.965 271.964 59.6814C271.654 60.4069 271.558 61.1129 271.818 61.9074C271.995 62.4391 272.35 63.0351 273.011 63.6889C273.508 64.1807 274.176 64.7018 275.054 65.2359C275.531 65.5249 275.68 66.1421 275.388 66.6143C275.095 67.0851 274.472 67.2324 273.995 66.9426ZM281.37 61.0918L291.297 69.482L289.904 71.0957L279.977 62.7055L281.37 61.0918ZM285.428 75.5452L277.405 65.7074L279.074 64.3746L287.096 74.2133L285.428 75.5452Z" fill="#FEDE6B"/>
</g>
<g clip-path="url(#clip3_11_16)">
<path d="M48.9679 396.82C48.0366 395.898 46.2145 396.21 44.8957 397.515C43.5778 398.819 43.2627 400.623 44.194 401.544C45.1236 402.464 46.9474 402.154 48.2653 400.85C49.584 399.545 49.8975 397.74 48.9679 396.82Z" fill="#DE397F"/>
<path d="M33.5234 381.534C32.5938 380.614 30.77 380.924 29.4512 382.229C28.1334 383.534 27.8199 385.339 28.7495 386.259C29.6808 387.18 31.5029 386.869 32.8208 385.564C34.1396 384.259 34.4547 382.456 33.5234 381.534Z" fill="#DE397F"/>
<path d="M17.0984 386.4C17.0984 386.4 13.1678 396.96 15.1331 398.35C17.0984 399.739 25.5232 398.628 25.5232 398.628L28.6114 401.684L31.6997 404.741C31.6997 404.741 30.5767 413.079 31.981 415.024C33.3853 416.969 44.0551 413.079 44.0551 413.079C44.0551 413.079 62.0251 415.857 67.9219 400.016C72.1807 388.578 61.7436 377.784 57.252 373.338C52.7586 368.891 41.8544 358.563 30.2954 362.777C14.2897 368.613 17.0984 386.4 17.0984 386.4ZM17.9046 394.146L19.8 389.769L22.3271 393.521L17.9046 394.146ZM27.0648 387.926C24.8174 385.702 24.8174 382.093 27.0657 379.868C29.3148 377.642 32.9609 377.642 35.2083 379.866C37.4574 382.092 37.4574 385.701 35.2083 387.927C32.9599 390.152 29.3139 390.152 27.0648 387.926ZM36.2266 412.279L36.8584 407.902L40.6492 410.404L36.2266 412.279ZM42.5093 403.212C40.2601 400.986 40.2601 397.377 42.5084 395.152C44.7575 392.926 48.4036 392.926 50.6527 395.152C52.9019 397.378 52.9019 400.987 50.6527 403.213C48.4044 405.438 44.7584 405.438 42.5093 403.212ZM66.2263 395.783L64.8805 397.434L54.9395 389.494L56.2862 387.842L66.2263 395.783ZM53.2531 390.388L61.7321 400.215L60.1017 401.594L51.6226 391.768L53.2531 390.388ZM46.0055 373.057C46.9918 373.656 47.789 374.267 48.4217 374.893C49.2616 375.723 49.8144 376.589 50.1065 377.465C50.3984 378.34 50.4174 379.212 50.2536 379.996C50.2258 380.126 50.1714 380.238 50.1352 380.364C51.0327 380.114 52.0463 380.068 53.0819 380.409C53.9663 380.698 54.8407 381.246 55.679 382.076C56.3117 382.704 56.9294 383.491 57.5358 384.467C57.8279 384.939 57.679 385.557 57.2025 385.846C56.7255 386.136 56.1011 385.988 55.8083 385.516C55.2711 384.648 54.7437 383.986 54.2467 383.494C53.587 382.841 52.9848 382.489 52.4475 382.314C51.9095 382.14 51.4217 382.131 50.9306 382.228C49.9557 382.416 48.966 383.118 48.2215 383.863C47.7945 384.284 47.4622 384.695 47.227 385.007L47.3627 387.702C47.3907 388.254 47.0723 388.766 46.5615 388.99C46.0506 389.214 45.4533 389.104 45.0585 388.714L41.716 385.406C41.3294 385.023 41.2143 384.448 41.4231 383.948C41.6321 383.45 42.1248 383.123 42.671 383.123L45.6393 383.123C45.928 382.901 46.2653 382.624 46.6158 382.277C47.1768 381.726 47.7247 381.035 48.0357 380.319C48.3458 379.593 48.4421 378.887 48.182 378.093C48.0053 377.561 47.6499 376.965 46.9893 376.311C46.4923 375.819 45.8243 375.298 44.9457 374.764C44.4695 374.475 44.3197 373.858 44.6125 373.386C44.9056 372.915 45.5284 372.768 46.0055 373.057ZM38.6297 378.908L28.7027 370.518L30.0962 368.904L40.0233 377.295L38.6297 378.908ZM34.5723 364.455L42.5956 374.293L40.9264 375.625L32.904 365.787L34.5723 364.455Z" fill="#DE397F"/>
</g>
<path d="M160.96 29.5644H155.004V11.36C155.004 10.7377 155.511 10.2311 156.133 10.2311H159.831C160.453 10.2311 160.96 10.7377 160.96 11.36V29.5644Z" fill="#F7C194"/>
<path d="M160.747 3.83998C159.084 7.14664 159.12 0.888871 157.973 0.47998C157.867 1.01331 157.707 1.53775 157.484 2.03554C157.049 3.01331 156.329 3.43998 155.698 4.23998C154.693 5.51109 154.791 7.57332 156.018 8.66664C157.484 9.97331 159.849 9.45775 160.667 7.67998C161.2 6.54221 160.836 5.04887 160.747 3.83998Z" fill="#F9AD5A"/>
<path d="M159.378 12.5777C159.378 12.151 159.031 11.8044 158.604 11.8044C158.364 11.8044 158.151 11.911 158.009 12.0799C157.867 11.911 157.653 11.8044 157.413 11.8044C156.987 11.8044 156.64 12.151 156.64 12.5777C156.64 12.7999 156.747 12.9955 156.889 13.1466L158.009 14.2222L159.111 13.1555C159.253 13.0133 159.378 12.8088 159.378 12.5777Z" fill="#DB374B"/>
<path d="M157.564 4.15998C157.076 5.25331 155.751 7.61775 157.689 8.18664C158.116 8.31109 158.658 8.23109 158.933 7.84886C159.644 6.87109 158.142 5.7422 158.124 4.80886C158.107 4.82664 157.884 5.19109 157.876 5.12886C157.831 4.79997 157.707 4.4622 157.564 4.15998Z" fill="#EA8500"/>
<path d="M157.76 5.6889C157.413 6.32001 156.667 7.93779 157.831 8.22224C158.507 8.39113 158.898 7.82224 158.596 7.2889C158.276 6.71113 157.733 6.44446 157.76 5.6889Z" fill="#E5653E"/>
<path d="M193.813 79.8398H120.924V65.4666C120.924 63.9644 122.151 62.7377 123.653 62.7377H191.084C192.587 62.7377 193.813 63.9644 193.813 65.4666V79.84L193.813 79.8398Z" fill="#FFD778"/>
<path d="M184.036 62.7377H130.702V48.0177C130.702 46.7377 131.751 45.6888 133.031 45.6888H181.707C182.987 45.6888 184.035 46.7377 184.035 48.0177L184.036 62.7377ZM174.471 45.6889H140.267V30.48C140.267 29.4489 141.111 28.6133 142.133 28.6133H172.604C173.635 28.6133 174.471 29.4578 174.471 30.48L174.471 45.6889Z" fill="#FFD778"/>
<path d="M181.707 45.6889H133.031C132.053 45.6889 131.209 46.3022 130.862 47.1644C132.356 49.5111 134.978 54.0444 138 54.6755C142.711 55.6533 144.338 50.9333 146.471 51.0222C148.604 51.1111 148.391 52.5244 150.622 52.6488C152.72 52.7644 153.884 49.0044 156.133 48.9155C158.382 48.8266 159.218 54.4533 163.129 53.92C167.04 53.3866 166.036 50.48 168.107 50.4266C170.178 50.3644 169.653 54.4533 172.676 54.5422C175.698 54.6311 175.102 48.4177 177.733 48.3822C180.364 48.3466 179.956 54.4888 181.733 54.6666C183.511 54.8444 184.036 52.5333 184.036 52.5333V48.0177C184.036 46.7377 182.987 45.6889 181.707 45.6889Z" fill="#FCB429"/>
<path d="M181.733 53.5911C179.956 53.4133 180.373 47.2711 177.733 47.3066C175.093 47.3422 175.698 53.5555 172.676 53.4666C169.653 53.3777 170.178 49.2889 168.107 49.3511C166.036 49.4133 167.04 52.3111 163.129 52.8444C159.218 53.3777 158.391 47.7511 156.133 47.84C153.876 47.9289 152.72 51.6889 150.622 51.5733C148.4 51.4489 148.604 50.0355 146.471 49.9466C144.338 49.8577 142.711 54.5777 138 53.6C135.182 53.0133 132.72 49.04 131.191 46.6044C131.058 46.7733 130.951 46.9689 130.871 47.1733C132.356 49.5111 134.978 54.0444 138 54.6755C142.711 55.6533 144.338 50.9333 146.471 51.0222C148.604 51.1111 148.391 52.5244 150.622 52.6489C152.72 52.7644 153.884 49.0044 156.133 48.9155C158.382 48.8266 159.218 54.4533 163.129 53.92C167.04 53.3866 166.036 50.48 168.107 50.4266C170.178 50.3644 169.653 54.4533 172.676 54.5422C175.698 54.6311 175.102 48.4177 177.733 48.3822C180.364 48.3466 179.956 54.4889 181.733 54.6666C183.511 54.8444 184.036 52.5333 184.036 52.5333V51.4577C184.036 51.4577 183.511 53.7689 181.733 53.5911Z" fill="#F99F10"/>
<path d="M174.471 30.48C174.471 29.5645 173.804 28.8 172.933 28.64H141.804C140.933 28.8 140.267 29.5645 140.267 30.48V30.9689C140.489 30.7556 140.747 30.64 141.076 30.64C143.031 30.6667 142.587 35.2711 144.827 35.2089C147.067 35.1467 146.676 32.1156 148.213 32.16C149.751 32.2045 149.004 34.3556 151.902 34.7556C154.8 35.1556 155.422 30.9778 157.085 31.04C158.756 31.1022 159.618 33.8933 161.173 33.8045C162.827 33.7156 162.667 32.6578 164.249 32.5956C165.831 32.5333 167.04 36.0267 170.533 35.3067C172.027 34.9956 173.396 33.3956 174.462 31.8489V30.48H174.471Z" fill="#FCB429"/>
<path d="M170.551 34.2311C167.058 34.96 165.849 31.4577 164.267 31.52C162.684 31.5822 162.836 32.64 161.191 32.7289C159.636 32.8177 158.773 30.0266 157.102 29.9644C155.431 29.9022 154.818 34.0711 151.92 33.68C149.022 33.2889 149.769 31.1289 148.231 31.0844C146.693 31.04 147.084 34.0711 144.844 34.1333C142.604 34.1956 143.049 29.5911 141.093 29.5645C140.836 29.5645 140.613 29.6356 140.427 29.7778C140.338 30 140.284 30.2311 140.284 30.48V30.9689C140.507 30.7556 140.764 30.64 141.093 30.64C143.049 30.6667 142.604 35.2711 144.844 35.2089C147.084 35.1467 146.693 32.1156 148.231 32.16C149.769 32.2045 149.022 34.3556 151.92 34.7556C154.818 35.1556 155.44 30.9778 157.102 31.04C158.773 31.1022 159.636 33.8933 161.191 33.8045C162.844 33.7156 162.684 32.6578 164.267 32.5956C165.849 32.5333 167.058 36.0267 170.551 35.3067C172.044 34.9956 173.413 33.3956 174.48 31.8489V30.7733C173.404 32.32 172.044 33.92 170.551 34.2311Z" fill="#F99F10"/>
<path d="M191.093 62.7377H123.653C122.151 62.7377 120.924 63.9644 120.924 65.4666V65.76C123.076 69.1822 126.391 74.3022 130.16 75.0844C136.747 76.4533 139.031 69.8489 142.009 69.9733C144.996 70.0977 144.702 72.08 147.813 72.2489C150.747 72.4089 152.373 67.1555 155.52 67.0311C158.667 66.9066 159.831 74.7822 165.298 74.0355C170.764 73.2889 169.36 69.2266 172.258 69.1466C175.156 69.0666 174.427 74.7822 178.649 74.9066C182.88 75.0311 182.036 66.3466 185.724 66.2933C189.413 66.2399 188.836 74.8266 191.316 75.0755C192.516 75.1911 193.307 74.5067 193.804 73.7689V65.4755C193.813 63.9644 192.587 62.7377 191.093 62.7377Z" fill="#FCB429"/>
<path d="M191.333 73.8934C188.845 73.6445 189.431 65.0578 185.742 65.1111C182.053 65.1644 182.889 73.8488 178.667 73.7245C174.436 73.6 175.173 67.8845 172.276 67.9645C169.378 68.0445 170.782 72.1067 165.316 72.8534C159.849 73.6 158.685 65.7245 155.538 65.8489C152.391 65.9734 150.765 71.2356 147.831 71.0667C144.72 70.8978 145.013 68.9156 142.027 68.7911C139.04 68.6667 136.765 75.2711 130.178 73.9022C126.471 73.1289 123.191 68.1511 121.04 64.7378C120.978 64.9689 120.942 65.2089 120.942 65.4667V65.76C123.093 69.1822 126.409 74.3023 130.178 75.0845C136.765 76.4534 139.049 69.8489 142.027 69.9734C145.013 70.0978 144.72 72.08 147.831 72.2489C150.765 72.4089 152.391 67.1556 155.538 67.0311C158.685 66.9067 159.849 74.7823 165.316 74.0356C170.782 73.2889 169.378 69.2267 172.276 69.1467C175.173 69.0667 174.445 74.7822 178.667 74.9067C182.898 75.0311 182.053 66.3467 185.742 66.2933C189.431 66.24 188.853 74.8267 191.333 75.0756C192.533 75.1912 193.325 74.5067 193.822 73.7689V72.5956C193.316 73.3334 192.525 74.0178 191.333 73.8934Z" fill="#F99F10"/>
<defs>
<clipPath id="clip0_11_16">
<rect width="56.8408" height="56.8408" fill="white" transform="matrix(0.710752 -0.703442 0.710752 0.703442 0 52.6231)"/>
</clipPath>
<clipPath id="clip1_11_16">
<rect width="56.8408" height="56.8408" fill="white" transform="matrix(-0.710752 0.703442 -0.710752 -0.703442 320 390.016)"/>
</clipPath>
<clipPath id="clip2_11_16">
<rect width="56.8408" height="56.8408" fill="white" transform="matrix(0.710752 0.703442 -0.710752 0.703442 279.6 10)"/>
</clipPath>
<clipPath id="clip3_11_16">
<rect width="56.8408" height="56.8408" fill="white" transform="matrix(-0.710752 -0.703442 0.710752 -0.703442 40.3998 430)"/>
</clipPath>
</defs>
</svg>
