<svg width="800" height="800" viewBox="0 0 800 800" fill="none" xmlns="http://www.w3.org/2000/svg">
<path d="M400 666.667C394.955 666.672 389.974 665.533 385.433 663.333C373.8 657.667 100 522.367 100 300C100 267.039 109.774 234.818 128.086 207.411C146.397 180.004 172.424 158.643 202.876 146.027C233.327 133.411 266.835 130.108 299.164 136.535C331.492 142.961 361.189 158.83 384.5 182.133L400 197.633L415.5 182.133C438.811 158.83 468.508 142.961 500.836 136.535C533.165 130.108 566.673 133.411 597.124 146.027C627.576 158.643 653.603 180.004 671.914 207.411C690.226 234.818 700 267.039 700 300C700 521.533 426.267 657.6 414.6 663.333C410.049 665.537 405.056 666.677 400 666.667Z" fill="#69faa3"/>
</svg>
